<?xml version="1.0" encoding="iso-8859-1"?>
<svg version="1.1" id="Layer_1" xmlns="http://www.w3.org/2000/svg" xmlns:xlink="http://www.w3.org/1999/xlink"
	 viewBox="0 0 500 500" xml:space="preserve">
<path style="fill:#EDC654;" d="M4,54.138v304c0,7.6,6.4,15.6,14,15.6h468c7.6,0,14-8,14-15.6v-302c0-8.8-7.2-14.4-16-14.4H18
	C10.4,41.738,4,46.138,4,54.138z"/>
<rect x="28" y="65.738" style="fill:#CDEEF9;" width="448" height="280"/>
<path style="fill:#3C8E51;" d="M200,134.938l-73.2,73.6l-34.8-33.6l-62.4,59.2c-0.4,0.4,0,111.6,0,111.6H476v-95.6l-75.6-75.6
	l-77.2,76.8L200,134.938z"/>
<path style="fill:#54B265;" d="M204,132.138l-77.2,78l138.4,136h157.6L204,132.138z"/>
<path style="fill:#E8BB85;" d="M92,171.738l-62.4,62.8c-0.4,0.4,0,111.2,0,111.2h237.6L92,171.738z"/>
<circle style="fill:#E9B526;" cx="316.4" cy="131.738" r="26.4"/>
<path style="fill:#FFC52F;" d="M197.2,295.338l14.8-2.4l9.2-18.8l17.6-36c9.6-19.2,25.2-19.2,34.8,0l19.6,39.2l7.6,15.2l16.8,2.4
	l43.2,6c21.2,3.2,26,18,10.8,32.8l-30,29.6l-13.6,13.2l4,24l6.4,36c3.6,21.2-8.8,30.4-28,20.4l-11.2-6l-21.2-11.2l-21.6-11.2
	l-20.4,10.8l-33.2,17.6c-19.2,10-31.6,0.8-28-20.4l7.2-42.4l2.8-17.6l-14.8-14.4l-30-29.2l1.6,1.2c-15.6-14.8-10.8-30,10.8-32.8
	L197.2,295.338z"/>
<path d="M188.8,465.738c-4,0-7.6-1.2-10.8-3.2c-6.8-4.8-9.2-14-7.2-25.6l9.6-58l-42-40.8l0,0c0,0,0,0-0.4-0.4l-1.2-1.2l-0.4-0.4
	c-7.2-7.6-10-16-7.6-23.2c2.4-7.6,10.4-13.2,22.4-14.8l45.2-6.8l0,0l12.8-2l26-52.8c5.2-10.8,12.8-16.8,20.8-16.8l0,0
	c8,0,15.6,6,20.8,16.8l26,52.4l58,8.4c12,1.6,20,6.8,22.4,14.8c2.4,7.6-0.8,16.8-9.2,25.2l-42,41.2l10,58c2,12-0.4,21.2-7.2,26
	c-6.4,4.8-16,4.4-26.8-1.2l-52-27.2l-52,27.6C199.2,464.138,193.6,465.738,188.8,465.738z M143.6,331.738l44.4,42.8
	c0.8,0.8,1.2,2.4,1.2,3.6l-10,60c-1.6,8.4,0,15.2,4,18s10.8,2,18.4-2l53.6-28.4c1.2-0.8,2.4-0.8,3.6,0l54,28
	c7.6,4,14.4,4.8,18.4,1.6c4-2.8,5.2-9.6,4-18l-10.4-60c-0.4-1.2,0-2.8,1.2-3.6l43.6-42.4c6-6,8.8-12.4,7.2-16.8
	c-1.6-4.8-7.2-8-16-9.2l-60-8.4c-1.2,0-2.4-1.2-3.2-2l-27.2-54.4c-4-7.6-8.8-12.4-13.6-12.4l0,0c-4.8,0-10,4.4-13.6,12.4l-26.8,54.8
	c-0.4,1.2-1.6,2-3.2,2l-14.8,2.4l0,0l-45.2,6.8c-8.4,1.2-14.4,4.8-16,9.2C135.2,319.738,137.6,325.738,143.6,331.738z"/>
<path d="M141.2,338.938c-0.8,0-2-0.4-2.8-1.2l0,0l-1.2-1.2c-1.6-1.6-1.6-4,0-5.6s4-1.6,5.6,0l0,0l1.2,1.2l0,0l0,0l0,0
	c0.8,0.8,1.2,1.6,1.2,2.8c0,1.2-0.4,2-1.2,2.8C143.6,338.539,142.4,338.938,141.2,338.938z"/>
<path d="M482,378.138H334c-2.4,0-4-1.6-4-4s1.6-4,4-4h148c6.4,0,10-3.6,10-10v-306c0-6.8-5.2-12-12-12H18c-6.8,0-10,3.2-10,10v308
	c0,6.4,3.6,10,10,10h160c2.4,0,4,1.6,4,4s-1.6,4-4,4H18c-10.8,0-18-7.2-18-18v-308c0-10.8,7.2-18,18-18h462c11.2,0,20,8.8,20,20v306
	C500,370.938,492.8,378.138,482,378.138z"/>
<path d="M152,350.138H28c-2.4,0-4-1.6-4-4v-280c0-2.4,1.6-4,4-4h388c2.4,0,4,1.6,4,4c0,2.4-1.6,4-4,4H32v272h120c2.4,0,4,1.6,4,4
	S154.4,350.138,152,350.138z"/>
<path d="M472,350.138H364c-2.4,0-4-1.6-4-4s1.6-4,4-4h104v-272h-16c-2.4,0-4-1.6-4-4c0-2.4,1.6-4,4-4h20c2.4,0,4,1.6,4,4v280
	C476,348.138,474.4,350.138,472,350.138z"/>
<path d="M28,238.138c-1.2,0-2-0.4-2.8-1.2c-1.6-1.6-1.6-4,0-5.6l64-64.4c1.6-1.6,4-1.6,5.6,0s1.6,4,0,5.6l-64,64.4
	C30,237.738,29.2,238.138,28,238.138z"/>
<path d="M184,266.138c-1.2,0-2-0.4-2.8-1.2l-92-92c-1.6-1.6-1.6-4,0-5.6s4-1.6,5.6,0l92,92c1.6,1.6,1.6,4,0,5.6
	C186,265.738,185.2,266.138,184,266.138z"/>
<path d="M140,198.138c-1.2,0-2-0.4-2.8-1.2c-1.6-1.6-1.6-4,0-5.6l64-64c1.6-1.6,4-1.6,5.6,0c1.6,1.6,1.6,4,0,5.6l-64,64
	C142,198.138,141.2,198.138,140,198.138z"/>
<path d="M336,238.138c-1.2,0-2-0.4-2.8-1.2c-1.6-1.6-1.6-4,0-5.6l64.4-64.4c1.6-1.6,4-1.6,5.6,0s1.6,4,0,5.6l-64.4,64.4
	C338,237.738,337.2,238.138,336,238.138z"/>
<path d="M356.4,286.539c-1.2,0-2-0.4-2.8-1.2l-152.4-152.4c-1.6-1.6-1.6-4,0-5.6c1.6-1.6,4-1.6,5.6,0l152.4,152.4
	c1.6,1.6,1.6,4,0,5.6C358.4,286.138,357.6,286.539,356.4,286.539z"/>
<path d="M470.8,247.738c-1.2,0-2-0.4-2.8-1.2l-70-74c-1.6-1.6-1.6-4,0-5.6s4-1.6,5.6,0l70,74c1.6,1.6,1.6,4,0,5.6
	C472.8,247.338,471.6,247.738,470.8,247.738z"/>
<path d="M316,158.539c-15.6,0-28-12.8-28-28c0-15.6,12.8-28,28-28c6,0,11.6,1.6,16.4,5.2c2,1.2,2.4,3.6,0.8,5.6
	c-1.2,2-3.6,2.4-5.6,0.8c-3.6-2.4-7.6-3.6-11.6-3.6c-11.2,0-20,9.2-20,20c0,11.2,9.2,20,20,20s20-9.2,20-20c0-2.4,1.6-4,4-4
	s4,1.6,4,4C344.4,145.738,331.6,158.539,316,158.539z"/>
</svg>